# xmcd CD database file
#
# Track frame offsets:
#	150
#	23281
#	37054
#	57506
#	76298
#	99093
#	115504
#	145244
#	165477
#	184748
#	201962
#	221914
#
# Disc length: 3180 seconds
#
# Revision: 2
# Processed by: cddbd v1.5.2PL0 Copyright (c) Steve Scherf et al.
# Submitted via: Feurio! 1.67 - http://www.feurio.com
#
DISCID=9b0c6a0c
DTITLE=Johnny Adams - The Great Johnny Adams R and B Album
DYEAR=2006
DGENRE=Blues
TTITLE0=I Need A Lot Of Loving
TTITLE1=From The Heart
TTITLE2=You Don't Miss Your Water
TTITLE3=She Said The Same Things To Me
TTITLE4=I Feel Like Breaking Up Somebody's Home
TTITLE5=She's Everything To Me
TTITLE6=Neither One Of Us (Wants To Be The First To Say Goodbye)
TTITLE7=Going Out Of My Mind Sale
TTITLE8=The Jealous Kind
TTITLE9=If I Ever Had A Good Thing
TTITLE10=Won't Pass Me By
TTITLE11=Still In Love
EXTD=
EXTT0=
EXTT1=
EXTT2=
EXTT3=
EXTT4=
EXTT5=
EXTT6=
EXTT7=
EXTT8=
EXTT9=
EXTT10=
EXTT11=
PLAYORDER=
